<svg version="1.1" xmlns="http://www.w3.org/2000/svg" xmlns:xlink="http://www.w3.org/1999/xlink" width="750" height="1060"><defs/><g transform="translate(0,0)"><g><rect fill="#FFFFFF" stroke="none" x="0" y="0" width="750" height="1060"/></g><g transform="translate(0,0) matrix(1,0,0,1,328,20)"><g><g transform="translate(0,0) scale(0.9,0.9)"><g><g transform="scale(1.1111111111111112,1.1111111111111112)"><path fill="#FFFFFF" stroke="none" d="M 15.000003 0 L 105.00003000000001 0 L 74.99999700000001 90 L -15.000003 90 L 15.000003 0 Z"/><path fill="none" stroke="#333333" d="M 15.000003 0 M 15.000003 0 L 105.00003000000001 0 L 74.99999700000001 90 L -15.000003 90 L 15.000003 0 Z" stroke-miterlimit="10" stroke-width="2"/></g></g></g></g></g><g transform="scale(1,1) matrix(1,0,0,1,330,20) translate(2,38)"><text fill="#000000" stroke="none" font-family="Arial" font-size="12px" font-style="normal" font-weight="normal" text-decoration="none" x="22.5" y="11">Report</text></g><g transform="translate(0,0) matrix(1,0,0,1,323,480)"><g><g transform="translate(0,0) scale(1,1)"><g><g transform="scale(1,1)"><path fill="#FFFFFF" stroke="none" d="M 50 0 L 100 50 L 50 100 L 0 50 L 50 0 Z"/><path fill="none" stroke="#333333" d="M 50 0 M 50 0 L 100 50 L 50 100 L 0 50 L 50 0 Z" stroke-miterlimit="10" stroke-width="2"/></g></g></g></g></g><g transform="scale(1,1) matrix(1,0,0,1,325,480) translate(2,43)"><text fill="#000000" stroke="none" font-family="Arial" font-size="12px" font-style="normal" font-weight="normal" text-decoration="none" x="16.5" y="11">Is Fixable?</text></g><g transform="translate(0,0) matrix(1,0,0,1,323,650)"><g><g transform="translate(0,0) scale(1,1)"><g><g transform="scale(1,1)"><path fill="#FFFFFF" stroke="none" d="M 50 0 L 100 50 L 50 100 L 0 50 L 50 0 Z"/><path fill="none" stroke="#333333" d="M 50 0 M 50 0 L 100 50 L 50 100 L 0 50 L 50 0 Z" stroke-miterlimit="10" stroke-width="2"/></g></g></g></g></g><g transform="scale(1,1) matrix(1,0,0,1,325,650) translate(2,43)"><text fill="#000000" stroke="none" font-family="Arial" font-size="12px" font-style="normal" font-weight="normal" text-decoration="none" x="28" y="11">Fixed?</text></g><g transform="translate(0,0) matrix(1,0,0,1,323,820)"><g><g transform="translate(0,0) scale(1,1)"><g><g transform="scale(1,1)"><path fill="#FFFFFF" stroke="none" d="M 50 0 L 100 50 L 50 100 L 0 50 L 50 0 Z"/><path fill="none" stroke="#333333" d="M 50 0 M 50 0 L 100 50 L 50 100 L 0 50 L 50 0 Z" stroke-miterlimit="10" stroke-width="2"/></g></g></g></g></g><g transform="scale(1,1) matrix(1,0,0,1,325,820) translate(2,43)"><text fill="#000000" stroke="none" font-family="Arial" font-size="12px" font-style="normal" font-weight="normal" text-decoration="none" x="13.5" y="11">Confirmed?</text></g><g transform="translate(0,0) matrix(1,0,0,1,584,505)"><g><g transform="translate(0,0) scale(1,0.5)"><g><g transform="scale(1,2)"><path fill="#FFFFFF" stroke="none" d="M 25 0 L 75 0 C 88.80711874576984 0 100 11.19288125423016 100 25 C 100 38.80711874576984 88.80711874576984 50 75 50 L 25 50 C 11.19288125423016 50 0 38.80711874576984 0 25 C 0 11.19288125423016 11.19288125423016 0 25 0 Z"/><path fill="none" stroke="#333333" d="M 25 0 M 25 0 L 75 0 C 88.80711874576984 0 100 11.19288125423016 100 25 C 100 38.80711874576984 88.80711874576984 50 75 50 L 25 50 C 11.19288125423016 50 0 38.80711874576984 0 25 C 0 11.19288125423016 11.19288125423016 0 25 0 Z" stroke-miterlimit="10" stroke-width="2"/></g></g></g></g></g><g transform="scale(1,1) matrix(1,0,0,1,586,505) translate(2,11)"><text fill="#000000" stroke="none" font-family="Arial" font-size="12px" font-style="normal" font-weight="normal" text-decoration="none" x="1.5" y="11">WP Status: Non </text><text fill="#000000" stroke="none" font-family="Arial" font-size="12px" font-style="normal" font-weight="normal" text-decoration="none" x="19" y="25">Funcional</text></g><g transform="translate(0,0) matrix(1,0,0,1,323,990)"><g><g transform="translate(0,0) scale(1,0.5)"><g><g transform="scale(1,2)"><path fill="#FFFFFF" stroke="none" d="M 25 0 L 75 0 C 88.80711874576984 0 100 11.19288125423016 100 25 C 100 38.80711874576984 88.80711874576984 50 75 50 L 25 50 C 11.19288125423016 50 0 38.80711874576984 0 25 C 0 11.19288125423016 11.19288125423016 0 25 0 Z"/><path fill="none" stroke="#333333" d="M 25 0 M 25 0 L 75 0 C 88.80711874576984 0 100 11.19288125423016 100 25 C 100 38.80711874576984 88.80711874576984 50 75 50 L 25 50 C 11.19288125423016 50 0 38.80711874576984 0 25 C 0 11.19288125423016 11.19288125423016 0 25 0 Z" stroke-miterlimit="10" stroke-width="2"/></g></g></g></g></g><g transform="scale(1,1) matrix(1,0,0,1,325,990) translate(2,11)"><text fill="#000000" stroke="none" font-family="Arial" font-size="12px" font-style="normal" font-weight="normal" text-decoration="none" x="14.5" y="11">&#160;WP Status:</text><text fill="#000000" stroke="none" font-family="Arial" font-size="12px" font-style="normal" font-weight="normal" text-decoration="none" x="17.5" y="25">Functional</text></g><g transform="matrix(1,0,0,1,418.5,525.5)"><g transform="translate(0,0)"><g transform="translate(-424,-531) translate(5.5,5.5) matrix(1,0,0,1,0,0)"><g><path fill="none" stroke="#000000" d="M 423 530 L 584 530" stroke-miterlimit="10" stroke-width="2"/></g></g></g></g><g transform="matrix(1,0,0,1,368.5,575.5)"><g transform="translate(0,0)"><g transform="translate(-372,-581) translate(3.5,5.5) matrix(1,0,0,1,0,0)"><g><path fill="none" stroke="#000000" d="M 373 580 L 373 650" stroke-miterlimit="10" stroke-width="2"/></g></g></g></g><g transform="matrix(1,0,0,1,368.5,745.5)"><g transform="translate(0,0)"><g transform="translate(-371,-748) translate(2.5,2.5) matrix(1,0,0,1,0,0)"><g><path fill="none" stroke="#000000" d="M 373 750 L 373 820" stroke-miterlimit="10" stroke-width="2"/></g></g></g></g><g transform="matrix(1,0,0,1,368.5,915.5)"><g transform="translate(0,0)"><g transform="translate(-374,-923) translate(5.5,7.5) matrix(1,0,0,1,0,0)"><g><path fill="none" stroke="#000000" d="M 373 920 L 373 990" stroke-miterlimit="10" stroke-width="2"/></g></g></g></g><g transform="scale(1,1) matrix(1,0,0,1,361,130) translate(2,0)"><text fill="#000000" stroke="none" font-family="Arial" font-size="12px" font-style="normal" font-weight="normal" text-decoration="none" x="28.5" y="11">Send out</text><text fill="#000000" stroke="none" font-family="Arial" font-size="12px" font-style="normal" font-weight="normal" text-decoration="none" x="26.5" y="25"> Engineer</text></g><g transform="scale(1,1) matrix(1,0,0,1,359,516) translate(2,0)"><text fill="#000000" stroke="none" font-family="Arial" font-size="12px" font-style="normal" font-weight="normal" text-decoration="none" x="65" y="11">No</text></g><g transform="scale(1,1) matrix(1,0,0,1,312,580) translate(2,0)"><text fill="#000000" stroke="none" font-family="Arial" font-size="12px" font-style="normal" font-weight="normal" text-decoration="none" x="62.5" y="11">Yes</text></g><g transform="scale(1,1) matrix(1,0,0,1,312,749.5) translate(2,0)"><text fill="#000000" stroke="none" font-family="Arial" font-size="12px" font-style="normal" font-weight="normal" text-decoration="none" x="62.5" y="11">Yes</text></g><g transform="scale(1,1) matrix(1,0,0,1,310,921.5) translate(2,0)"><text fill="#000000" stroke="none" font-family="Arial" font-size="12px" font-style="normal" font-weight="normal" text-decoration="none" x="62.5" y="11">Yes</text></g><g transform="matrix(1,0,0,1,368.5,605.5)"><g transform="translate(0,0)"><g transform="translate(-426,-874) translate(57.5,268.5) matrix(1,0,0,1,0,0)"><g><path fill="none" stroke="#000000" d="M 423 870 L 610 870 Q 620 870 620 860 L 620 620 Q 620 610 610 610 L 383 610 Q 373 610 373 620 L 373 650" stroke-miterlimit="10" stroke-width="2"/></g></g></g></g><g transform="scale(1,1) matrix(1,0,0,1,582,420) translate(2,0)"><text fill="#000000" stroke="none" font-family="Arial" font-size="12px" font-style="normal" font-weight="normal" text-decoration="none" x="46" y="11">Resubmit</text></g><g transform="matrix(1,0,0,1,368.5,605.5)"><g transform="translate(0,0)"><g transform="translate(-424,-699) translate(55.5,93.5) matrix(1,0,0,1,0,0)"><g><path fill="none" stroke="#000000" d="M 423 700 L 448 700 Q 458 700 458 690 L 458 620 Q 458 610 448 610 L 383 610 Q 373 610 373 620 L 373 650" stroke-miterlimit="10" stroke-width="2"/></g></g></g></g><g transform="scale(1,1) matrix(1,0,0,1,427,636) translate(2,0)"><text fill="#000000" stroke="none" font-family="Arial" font-size="12px" font-style="normal" font-weight="normal" text-decoration="none" x="33.5" y="11">Requirements</text><text fill="#000000" stroke="none" font-family="Arial" font-size="12px" font-style="normal" font-weight="normal" text-decoration="none" x="56" y="25"> to fix?</text></g><g transform="scale(1,1) matrix(1,0,0,1,413,686) translate(2,0)"><text fill="#000000" stroke="none" font-family="Arial" font-size="12px" font-style="normal" font-weight="normal" text-decoration="none" x="15.5" y="11">No</text></g><g transform="scale(1,1) matrix(1,0,0,1,413,856) translate(2,0)"><text fill="#000000" stroke="none" font-family="Arial" font-size="12px" font-style="normal" font-weight="normal" text-decoration="none" x="15.5" y="11">No</text></g><g transform="translate(0,0) matrix(1,0,0,1,323,260)"><g><g transform="translate(0,0) scale(1,1)"><g><g transform="scale(1,1)"><path fill="#FFFFFF" stroke="none" d="M 50 0 L 100 50 L 50 100 L 0 50 L 50 0 Z"/><path fill="none" stroke="#333333" d="M 50 0 M 50 0 L 100 50 L 50 100 L 0 50 L 50 0 Z" stroke-miterlimit="10" stroke-width="2"/></g></g></g></g></g><g transform="scale(1,1) matrix(1,0,0,1,325,260) translate(2,43)"><text fill="#000000" stroke="none" font-family="Arial" font-size="12px" font-style="normal" font-weight="normal" text-decoration="none" x="12.5" y="11">Verification?</text></g><g transform="matrix(1,0,0,1,368.5,355.5)"><g transform="translate(0,0)"><g transform="translate(-383,-349) translate(14.5,-6.5) matrix(1,0,0,1,0,0)"><g><path fill="none" stroke="#000000" d="M 373 360 L 373 480" stroke-miterlimit="10" stroke-width="2"/></g></g></g></g><g transform="matrix(1,0,0,1,368.5,105.5)"><g transform="translate(0,0)"><g transform="translate(-371,-111) translate(2.5,5.5) matrix(1,0,0,1,0,0)"><g><path fill="none" stroke="#000000" d="M 373 110 L 373 260" stroke-miterlimit="10" stroke-width="2"/></g></g></g></g><g transform="translate(0,0) matrix(1,0,0,1,579,285)"><g><g transform="translate(0,0) scale(1,0.5)"><g><g transform="scale(1,2)"><path fill="#FFFFFF" stroke="none" d="M 25 0 L 75 0 C 88.80711874576984 0 100 11.19288125423016 100 25 C 100 38.80711874576984 88.80711874576984 50 75 50 L 25 50 C 11.19288125423016 50 0 38.80711874576984 0 25 C 0 11.19288125423016 11.19288125423016 0 25 0 Z"/><path fill="none" stroke="#333333" d="M 25 0 M 25 0 L 75 0 C 88.80711874576984 0 100 11.19288125423016 100 25 C 100 38.80711874576984 88.80711874576984 50 75 50 L 25 50 C 11.19288125423016 50 0 38.80711874576984 0 25 C 0 11.19288125423016 11.19288125423016 0 25 0 Z" stroke-miterlimit="10" stroke-width="2"/></g></g></g></g></g><g transform="scale(1,1) matrix(1,0,0,1,581,285) translate(2,11)"><text fill="#000000" stroke="none" font-family="Arial" font-size="12px" font-style="normal" font-weight="normal" text-decoration="none" x="7" y="11">Don't &#160;change </text><text fill="#000000" stroke="none" font-family="Arial" font-size="12px" font-style="normal" font-weight="normal" text-decoration="none" x="32" y="25">State</text></g><g transform="matrix(1,0,0,1,418.5,305.5)"><g transform="translate(0,0)"><g transform="translate(-424,-310) translate(5.5,4.5) matrix(1,0,0,1,0,0)"><g><path fill="none" stroke="#000000" d="M 423 310 L 579 310" stroke-miterlimit="10" stroke-width="2"/></g></g></g></g><g transform="scale(1,1) matrix(1,0,0,1,357,294.5) translate(2,0)"><text fill="#000000" stroke="none" font-family="Arial" font-size="12px" font-style="normal" font-weight="normal" text-decoration="none" x="65" y="11">No</text></g><g transform="scale(1,1) matrix(1,0,0,1,310,360) translate(2,0)"><text fill="#000000" stroke="none" font-family="Arial" font-size="12px" font-style="normal" font-weight="normal" text-decoration="none" x="62.5" y="11">Yes</text></g><g transform="scale(1,1) matrix(1,0,0,1,373,406) translate(2,0)"><text fill="#000000" stroke="none" font-family="Arial" font-size="12px" font-style="normal" font-weight="normal" text-decoration="none" x="7" y="11">WP Status: Needs Repair</text></g></g></svg>